<?xml version="1.0" standalone="no"?>
<!DOCTYPE svg PUBLIC "-//W3C//DTD SVG 20010904//EN"
 "http://www.w3.org/TR/2001/REC-SVG-20010904/DTD/svg10.dtd">
<svg version="1.0" xmlns="http://www.w3.org/2000/svg"
 width="16.000000pt" height="16.000000pt" viewBox="0 0 16.000000 16.000000"
 preserveAspectRatio="xMidYMid meet">
<metadata>
Created by potrace 1.11, written by Peter Selinger 2001-2013
</metadata>
<g transform="translate(0.000000,16.000000) scale(0.006154,-0.006154)"
fill="#000000" stroke="none">
<path d="M1177 2403 c-3 -5 -37 -127 -76 -273 -109 -407 -117 -435 -123 -425
-3 6 -45 147 -93 315 -47 168 -93 312 -101 320 -14 13 -17 13 -30 -4 -8 -11
-14 -28 -14 -38 0 -16 -17 -170 -95 -838 -19 -167 -33 -310 -31 -317 6 -15 32
-17 41 -3 3 5 24 161 45 347 65 550 82 688 83 690 1 1 40 -132 86 -295 46
-164 90 -303 97 -311 7 -7 19 -11 26 -9 8 4 47 130 98 321 47 174 87 311 91
304 3 -7 11 -84 18 -172 6 -88 30 -324 53 -525 139 -1248 132 -1192 151 -1204
13 -8 20 -8 25 1 5 7 30 151 56 320 27 170 50 310 52 312 6 7 7 5 104 -239 51
-129 99 -241 106 -249 22 -24 41 3 47 67 4 31 31 273 62 536 30 264 55 492 55
508 0 25 -4 29 -22 26 -22 -3 -24 -12 -40 -138 -17 -133 -98 -845 -98 -858 0
-22 -28 41 -110 250 -51 130 -98 239 -105 242 -6 2 -17 1 -23 -3 -6 -3 -27
-112 -47 -241 -20 -129 -40 -251 -44 -270 -7 -33 -8 -30 -15 30 -28 253 -101
891 -121 1065 -25 221 -40 395 -50 585 -8 160 -12 180 -35 180 -10 0 -21 -3
-23 -7z"/>
</g>
</svg>
